<svg width="64" height="64" viewBox="0 0 64 64" fill="none" xmlns="http://www.w3.org/2000/svg">
<path fill-rule="evenodd" clip-rule="evenodd" d="M33.9445 0.0581095C33.3013 0.0195552 32.6529 0 32 0C14.3269 0 0 14.3269 0 32C0 49.6731 14.3269 64 32 64C49.6731 64 64 49.6731 64 32C64 31.0168 63.9557 30.044 63.8689 29.0834C63.801 28.3321 63.7071 27.5883 63.5882 26.8529C63.4967 26.2865 62.8432 26.0193 62.3301 26.2758C61.7127 26.5845 61.054 26.8227 60.3645 26.9799C59.7329 27.1239 59.0753 27.2 58.4 27.2C56.1824 27.2 54.1563 26.3797 52.6087 25.026C52.3526 24.8019 51.9893 24.7411 51.6749 24.8715C50.543 25.3409 49.3017 25.6 48 25.6C42.6981 25.6 38.4 21.3019 38.4 16C38.4 14.3474 38.8176 12.7924 39.553 11.4346C39.7268 11.1136 39.688 10.7156 39.4519 10.4371C37.7977 8.48513 36.8 5.95907 36.8 3.2C36.8 2.93103 36.8095 2.66428 36.8281 2.40005C36.8552 2.01716 36.9014 1.63957 36.966 1.26826C37.0465 0.804873 36.7495 0.346559 36.2834 0.284196C35.5121 0.181021 34.7321 0.10532 33.9445 0.0581095ZM33.6001 3.24362C33.0706 3.21468 32.5372 3.2 32 3.2C16.0942 3.2 3.2 16.0942 3.2 32C3.2 47.9058 16.0942 60.8 32 60.8C47.9058 60.8 60.8 47.9058 60.8 32C60.8 31.3853 60.7808 30.7754 60.743 30.1708C59.9846 30.3212 59.201 30.4 58.4 30.4C55.8756 30.4 53.5303 29.6181 51.5977 28.2866C50.4543 28.621 49.2463 28.8 48 28.8C40.9308 28.8 35.2 23.0692 35.2 16C35.2 14.3432 35.5162 12.7559 36.092 11.2986C34.5283 9.00266 33.6089 6.22818 33.6001 3.24362Z" fill="#0BBF9F"/>
<circle cx="21.6" cy="23.1996" r="4" stroke="#011713" stroke-width="3.2"/>
<circle cx="22.3996" cy="46.3996" r="3.2" stroke="#011713" stroke-width="3.2"/>
<circle cx="43.2004" cy="40.0002" r="3.2" stroke="#011713" stroke-width="3.2"/>
<circle cx="32.0004" cy="32.0004" r="1.6" fill="#0BBF9F"/>
<circle cx="27.1996" cy="11.1996" r="1.6" fill="#0BBF9F"/>
<circle cx="35.1996" cy="51.1996" r="1.6" fill="#0BBF9F"/>
<circle cx="54.3998" cy="41.6" r="1.6" fill="#0BBF9F"/>
<circle cx="11.1996" cy="32.0004" r="1.6" fill="#0BBF9F"/>
</svg>
