<svg width="110" height="48" viewBox="0 0 110 48" fill="none" xmlns="http://www.w3.org/2000/svg">
<path d="M39.8296 22.1405H32.9552C32.6702 22.1498 32.3864 22.0938 32.1217 21.976C31.857 21.8582 31.6168 21.6812 31.4162 21.4559C31.2156 21.2306 31.0588 20.9618 30.9556 20.6664C30.8524 20.3709 30.8049 20.055 30.8162 19.7382V16.5488C30.8047 16.2311 30.851 15.9142 30.9524 15.6169C31.0538 15.3196 31.2082 15.0482 31.4062 14.8188C31.6095 14.5981 31.8509 14.4254 32.1158 14.3112C32.3808 14.1971 32.6638 14.1438 32.9478 14.1547H39.8222V15.7371H32.9552C32.8543 15.7167 32.7505 15.7238 32.6526 15.7578C32.5547 15.7918 32.4657 15.8516 32.3932 15.9323C32.3206 16.0129 32.2668 16.1118 32.2362 16.2206C32.2056 16.3294 32.1992 16.4449 32.2176 16.557V19.7464C32.1992 19.8586 32.2056 19.974 32.2362 20.0828C32.2668 20.1916 32.3206 20.2906 32.3932 20.3712C32.4657 20.4518 32.5547 20.5116 32.6526 20.5456C32.7505 20.5796 32.8543 20.5867 32.9552 20.5663H39.8296V22.1405Z" fill="#011713"/>
<path d="M53.6087 22.1235H52.1335V16.458L48.7848 22.1235H47.4793L44.1306 16.458V22.1235H42.707V14.1541H44.5289L48.1505 20.123L51.7869 14.1377H53.6087V22.1235Z" fill="#011713"/>
<path d="M65.6954 22.1401H63.9473L63.0622 20.5003H58.3194L57.4343 22.1401H55.6641L59.979 14.1543H61.4542L65.6954 22.1401ZM62.177 18.9425L60.7019 16.245L59.2267 18.9425H62.177Z" fill="#011713"/>
<path d="M76.7708 16.5489C76.7708 17.1838 76.5439 17.7928 76.14 18.2417C75.7361 18.6907 75.1883 18.943 74.617 18.943H69.1736V22.1406H67.75V14.1548H74.617C74.9009 14.1485 75.1829 14.2071 75.4455 14.327C75.7082 14.4469 75.9459 14.6255 76.1439 14.8517C76.346 15.0729 76.5057 15.3373 76.6135 15.629C76.7212 15.9207 76.7747 16.2336 76.7708 16.5489ZM75.2956 16.5489C75.2948 16.3338 75.218 16.1276 75.0817 15.9749C75.0169 15.8997 74.9391 15.8398 74.8528 15.7989C74.7666 15.7581 74.6739 15.7371 74.5802 15.7372H69.1367V17.377H74.5802C74.6734 17.3786 74.766 17.3591 74.8522 17.3196C74.9385 17.2801 75.0165 17.2215 75.0817 17.1474C75.1586 17.0724 75.2205 16.9805 75.2637 16.8774C75.3069 16.7744 75.3303 16.6625 75.3325 16.5489H75.2956Z" fill="#011713"/>
<path d="M88.6599 15.7455H84.8687V22.1325H83.4304V15.7455H79.6465V14.1631H88.6599V15.7455Z" fill="#011713"/>
<path d="M50.5193 34.6382H49.0441V28.5217L43.2908 34.6136H41.5059V26.6523H42.9294V32.736L48.7343 26.6523H50.5562L50.5193 34.6382Z" fill="#011713"/>
<path d="M62.4564 34.6354H60.9812V31.4542H54.8591V34.6354H53.4355V26.666H54.8591V29.8554H61.018V26.666H62.4932L62.4564 34.6354Z" fill="#011713"/>
<path d="M74.3923 32.2271C74.3923 32.8621 74.1654 33.471 73.7615 33.92C73.3576 34.369 72.8098 34.6212 72.2386 34.6212H65.3789V26.6518H72.2386C72.5224 26.6455 72.8044 26.7042 73.0671 26.8241C73.3297 26.9439 73.5674 27.1225 73.7654 27.3487C73.969 27.567 74.1299 27.8297 74.2378 28.1203C74.3457 28.411 74.3983 28.7234 74.3923 29.0377C74.3964 29.6228 74.2015 30.188 73.8465 30.6201C74.201 31.0623 74.3955 31.6349 74.3923 32.2271ZM72.9614 29.0459C72.9606 28.8308 72.8838 28.6247 72.7475 28.472C72.6818 28.3957 72.6028 28.3353 72.5152 28.2944C72.4277 28.2535 72.3335 28.233 72.2386 28.2342H66.8025V29.874H72.2386C72.333 29.8763 72.4268 29.8571 72.5144 29.8176C72.6019 29.7782 72.6812 29.7192 72.7475 29.6445C72.8177 29.5659 72.8728 29.4724 72.9095 29.3695C72.9463 29.2667 72.9639 29.1566 72.9614 29.0459ZM72.9614 32.2353C72.9625 32.1298 72.9441 32.0251 72.9073 31.9278C72.8705 31.8305 72.8161 31.7426 72.7475 31.6696C72.6108 31.5231 72.4285 31.4409 72.2386 31.44H66.8025V33.0224H72.2386C72.4342 33.0224 72.6218 32.9361 72.7601 32.7823C72.8985 32.6285 72.9762 32.42 72.9762 32.2025L72.9614 32.2353Z" fill="#011713"/>
<path d="M86.2903 34.6208H77.2695V26.6514H86.2903V28.2338H78.6931V29.8736H86.2903V31.4724H78.6931V33.0548H86.2903V34.6208Z" fill="#011713"/>
<path d="M98.1931 34.6375H91.3187C91.0347 34.6465 90.752 34.5908 90.4882 34.4738C90.2243 34.3567 89.9848 34.1808 89.7845 33.9569C89.5823 33.7314 89.4237 33.4624 89.3184 33.1663C89.2131 32.8702 89.1634 32.5534 89.1723 32.2352V29.0457C89.1586 28.728 89.2048 28.4107 89.3077 28.1139C89.4107 27.8171 89.5682 27.5475 89.7702 27.3222C89.9722 27.0969 90.2142 26.9209 90.4808 26.8054C90.7474 26.69 91.0328 26.6376 91.3187 26.6516H98.1931V28.234H91.3187C91.2181 28.2156 91.1149 28.2241 91.0179 28.2587C90.9208 28.2934 90.8326 28.3533 90.7605 28.4335C90.6884 28.5136 90.6345 28.6117 90.6033 28.7196C90.5721 28.8275 90.5645 28.9421 90.5811 29.0539V32.2434C90.5645 32.3552 90.5721 32.4698 90.6033 32.5777C90.6345 32.6856 90.6884 32.7837 90.7605 32.8638C90.8326 32.944 90.9208 33.0039 91.0179 33.0386C91.1149 33.0732 91.2181 33.0817 91.3187 33.0633H98.1931V34.6375Z" fill="#011713"/>
<path d="M110 28.2338H106.209V34.6208H104.77V28.2338H100.986V26.6514H110V28.2338Z" fill="#011713"/>
<path d="M61.2866 47.1356H54.4122C54.1272 47.1449 53.8435 47.0889 53.5787 46.9711C53.314 46.8533 53.0739 46.6763 52.8733 46.451C52.6727 46.2257 52.5159 45.957 52.4126 45.6615C52.3094 45.366 52.262 45.0501 52.2732 44.7333V41.5439C52.2617 41.2263 52.3081 40.9093 52.4095 40.612C52.5109 40.3147 52.6652 40.0433 52.8633 39.8139C53.0665 39.5932 53.3079 39.4205 53.5729 39.3063C53.8378 39.1922 54.1209 39.139 54.4049 39.1498H61.2793V40.7322H54.4122C54.3113 40.7118 54.2075 40.7189 54.1096 40.7529C54.0117 40.7869 53.9227 40.8468 53.8502 40.9274C53.7777 41.008 53.7238 41.1069 53.6932 41.2157C53.6627 41.3245 53.6563 41.44 53.6746 41.5521V44.7415C53.6563 44.8537 53.6627 44.9691 53.6932 45.0779C53.7238 45.1867 53.7777 45.2857 53.8502 45.3663C53.9227 45.4469 54.0117 45.5068 54.1096 45.5407C54.2075 45.5747 54.3113 45.5818 54.4122 45.5614H61.2866V47.1356Z" fill="#011713"/>
<path d="M73.347 40.7318H69.5484V47.1188H68.0732V40.7318H64.3262V39.1494H73.347V40.7318Z" fill="#011713"/>
<path d="M85.4002 41.5436C85.4002 42.1785 85.1732 42.7875 84.7693 43.2365C84.3654 43.6854 83.8176 43.9377 83.2464 43.9377H77.8103V47.1353H76.3867V39.1495H83.2464C83.5298 39.1473 83.8107 39.2077 84.0729 39.3273C84.3351 39.4468 84.5733 39.6231 84.7737 39.8458C84.9741 40.0686 85.1327 40.3334 85.2402 40.6248C85.3477 40.9163 85.4021 41.2286 85.4002 41.5436ZM83.9692 41.5436C83.9684 41.3285 83.8916 41.1224 83.7553 40.9696C83.6897 40.8934 83.6106 40.8329 83.5231 40.792C83.4355 40.7511 83.3413 40.7307 83.2464 40.7319H77.8103V42.3717H83.2464C83.3408 42.374 83.4347 42.3548 83.5222 42.3153C83.6097 42.2758 83.689 42.2169 83.7553 42.1421C83.8255 42.0636 83.8806 41.97 83.9174 41.8672C83.9541 41.7643 83.9718 41.6542 83.9692 41.5436Z" fill="#011713"/>
<path d="M97.5453 44.7339C97.5565 45.0527 97.5101 45.3709 97.4087 45.6694C97.3074 45.968 97.1532 46.2409 96.9552 46.4721C96.7497 46.6963 96.5047 46.871 96.2357 46.9853C95.9666 47.0996 95.6793 47.1509 95.3915 47.1362H90.6709C90.3865 47.1455 90.1032 47.0907 89.8383 46.9752C89.5734 46.8597 89.3322 46.6857 89.1293 46.4639C88.929 46.2356 88.7721 45.9647 88.6682 45.6674C88.5643 45.3702 88.5154 45.0526 88.5245 44.7339V41.5445C88.5216 41.2299 88.575 40.9177 88.6818 40.6263C88.7885 40.3349 88.9464 40.0701 89.1462 39.8472C89.346 39.6243 89.5837 39.4479 89.8455 39.3283C90.1073 39.2087 90.3879 39.1482 90.6709 39.1504H95.3915C95.6766 39.1413 95.9603 39.197 96.2253 39.3141C96.4903 39.4313 96.731 39.6073 96.9326 39.8314C97.1343 40.0556 97.2926 40.3231 97.398 40.6177C97.5033 40.9122 97.5535 41.2276 97.5453 41.5445V44.7339ZM96.0701 44.7339V41.5445C96.0885 41.4323 96.0821 41.3169 96.0515 41.2081C96.021 41.0993 95.9671 41.0003 95.8946 40.9197C95.8221 40.8391 95.7331 40.7792 95.6352 40.7453C95.5373 40.7113 95.4334 40.7042 95.3325 40.7246H90.6119C90.5163 40.7212 90.421 40.7398 90.3321 40.7793C90.2433 40.8188 90.1627 40.8783 90.0956 40.9541C89.9602 41.1102 89.886 41.3195 89.8891 41.5363V44.7257C89.8725 44.8375 89.8801 44.9521 89.9113 45.06C89.9425 45.1679 89.9964 45.266 90.0685 45.3462C90.1406 45.4263 90.2288 45.4862 90.3259 45.5209C90.423 45.5556 90.5261 45.564 90.6267 45.5456H95.3473C95.449 45.5702 95.5547 45.5667 95.6549 45.5352C95.7551 45.5037 95.8469 45.4452 95.9219 45.365C95.997 45.2848 96.0532 45.1852 96.0855 45.0752C96.1177 44.9651 96.1252 44.8479 96.107 44.7339H96.0701Z" fill="#011713"/>
<path d="M109.689 47.1382H108.25V41.0218L102.49 47.1136H100.668V39.1524H102.092V45.2361L107.867 39.1524H109.689V47.1382ZM105.477 39.8739C105.213 40.1236 104.907 40.3131 104.577 40.4315L103.596 40.8906C103.677 40.5217 103.766 40.1445 103.847 39.7755C103.923 39.4061 104.049 39.052 104.223 38.7261C104.322 38.583 104.458 38.4768 104.613 38.4212C104.767 38.3657 104.933 38.3635 105.089 38.415C105.245 38.4665 105.383 38.5692 105.485 38.7096C105.587 38.8501 105.649 39.0216 105.662 39.2016C105.675 39.3218 105.665 39.4436 105.633 39.5594C105.601 39.6752 105.548 39.7823 105.477 39.8739Z" fill="#011713"/>
<path fill-rule="evenodd" clip-rule="evenodd" d="M0 0V47.9999H19.6776V11.3609L0 0Z" fill="#0BBF9F"/>
<path opacity="0.32" fill-rule="evenodd" clip-rule="evenodd" d="M0 16.501V48.0001H29.5164V26.0914L0 16.501Z" fill="#0A7D69"/>
<path opacity="0.32" fill-rule="evenodd" clip-rule="evenodd" d="M0 31.9238V48H39.7461V38.9321L0 31.9238Z" fill="#0A7D69"/>
</svg>
