<svg width="110" height="48" viewBox="0 0 110 48" fill="none" xmlns="http://www.w3.org/2000/svg">
<path d="M39.8296 22.1405H32.9552C32.6702 22.1498 32.3864 22.0938 32.1217 21.976C31.857 21.8582 31.6168 21.6812 31.4162 21.4559C31.2156 21.2306 31.0588 20.9618 30.9556 20.6664C30.8524 20.3709 30.8049 20.055 30.8162 19.7382V16.5488C30.8047 16.2311 30.851 15.9142 30.9524 15.6169C31.0538 15.3196 31.2082 15.0482 31.4062 14.8188C31.6095 14.5981 31.8509 14.4254 32.1158 14.3112C32.3808 14.1971 32.6638 14.1438 32.9478 14.1547H39.8222V15.7371H32.9552C32.8543 15.7167 32.7505 15.7238 32.6526 15.7578C32.5547 15.7918 32.4657 15.8516 32.3932 15.9323C32.3206 16.0129 32.2668 16.1118 32.2362 16.2206C32.2056 16.3294 32.1992 16.4449 32.2176 16.557V19.7464C32.1992 19.8586 32.2056 19.974 32.2362 20.0828C32.2668 20.1916 32.3206 20.2906 32.3932 20.3712C32.4657 20.4518 32.5547 20.5116 32.6526 20.5456C32.7505 20.5796 32.8543 20.5867 32.9552 20.5663H39.8296V22.1405Z" fill="white"/>
<path d="M53.6077 22.1235H52.1325V16.458L48.7839 22.1235H47.4783L44.1296 16.458V22.1235H42.7061V14.1541H44.5279L48.1495 20.123L51.7859 14.1377H53.6077V22.1235Z" fill="white"/>
<path d="M65.6944 22.1401H63.9463L63.0612 20.5003H58.3184L57.4333 22.1401H55.6631L59.978 14.1543H61.4532L65.6944 22.1401ZM62.1761 18.9425L60.7009 16.245L59.2257 18.9425H62.1761Z" fill="white"/>
<path d="M76.7698 16.5489C76.7698 17.1838 76.5429 17.7928 76.139 18.2417C75.7351 18.6907 75.1873 18.943 74.6161 18.943H69.1726V22.1406H67.749V14.1548H74.6161C74.8999 14.1485 75.1819 14.2071 75.4446 14.327C75.7072 14.4469 75.9449 14.6255 76.1429 14.8517C76.345 15.0729 76.5047 15.3373 76.6125 15.629C76.7202 15.9207 76.7738 16.2336 76.7698 16.5489ZM75.2946 16.5489C75.2938 16.3338 75.217 16.1276 75.0807 15.9749C75.0159 15.8997 74.9381 15.8398 74.8519 15.7989C74.7657 15.7581 74.6729 15.7371 74.5792 15.7372H69.1357V17.377H74.5792C74.6724 17.3786 74.765 17.3591 74.8512 17.3196C74.9375 17.2801 75.0156 17.2215 75.0807 17.1474C75.1576 17.0724 75.2196 16.9805 75.2627 16.8774C75.3059 16.7744 75.3293 16.6625 75.3315 16.5489H75.2946Z" fill="white"/>
<path d="M88.6599 15.7455H84.8687V22.1325H83.4304V15.7455H79.6465V14.1631H88.6599V15.7455Z" fill="white"/>
<path d="M50.5183 34.6382H49.0431V28.5217L43.2899 34.6136H41.5049V26.6523H42.9284V32.736L48.7333 26.6523H50.5552L50.5183 34.6382Z" fill="white"/>
<path d="M62.4554 34.6354H60.9802V31.4542H54.8581V34.6354H53.4346V26.666H54.8581V29.8554H61.0171V26.666H62.4923L62.4554 34.6354Z" fill="white"/>
<path d="M74.3914 32.2271C74.3914 32.8621 74.1645 33.471 73.7605 33.92C73.3566 34.369 72.8088 34.6212 72.2376 34.6212H65.3779V26.6518H72.2376C72.5215 26.6455 72.8035 26.7042 73.0661 26.8241C73.3287 26.9439 73.5664 27.1225 73.7644 27.3487C73.9681 27.567 74.1289 27.8297 74.2368 28.1203C74.3447 28.411 74.3973 28.7234 74.3914 29.0377C74.3954 29.6228 74.2005 30.188 73.8455 30.6201C74.2001 31.0623 74.3945 31.6349 74.3914 32.2271ZM72.9604 29.0459C72.9596 28.8308 72.8828 28.6247 72.7465 28.472C72.6809 28.3957 72.6018 28.3353 72.5143 28.2944C72.4267 28.2535 72.3325 28.233 72.2376 28.2342H66.8015V29.874H72.2376C72.332 29.8763 72.4259 29.8571 72.5134 29.8177C72.6009 29.7782 72.6802 29.7192 72.7465 29.6445C72.8167 29.5659 72.8718 29.4724 72.9086 29.3695C72.9453 29.2667 72.963 29.1566 72.9604 29.0459ZM72.9604 32.2353C72.9615 32.1298 72.9431 32.0251 72.9063 31.9278C72.8695 31.8305 72.8151 31.7426 72.7465 31.6696C72.6098 31.5231 72.4275 31.4409 72.2376 31.44H66.8015V33.0224H72.2376C72.4332 33.0224 72.6208 32.9361 72.7591 32.7823C72.8975 32.6285 72.9752 32.42 72.9752 32.2025L72.9604 32.2353Z" fill="white"/>
<path d="M86.2884 34.6208H77.2676V26.6514H86.2884V28.2338H78.6911V29.8736H86.2884V31.4724H78.6911V33.0548H86.2884V34.6208Z" fill="white"/>
<path d="M98.1931 34.6375H91.3187C91.0347 34.6465 90.752 34.5908 90.4882 34.4738C90.2243 34.3567 89.9848 34.1808 89.7845 33.9569C89.5823 33.7314 89.4237 33.4624 89.3184 33.1663C89.2131 32.8702 89.1634 32.5534 89.1723 32.2352V29.0458C89.1586 28.728 89.2048 28.4107 89.3077 28.1139C89.4107 27.8171 89.5682 27.5475 89.7702 27.3222C89.9722 27.0969 90.2142 26.9209 90.4808 26.8054C90.7474 26.69 91.0328 26.6376 91.3187 26.6516H98.1931V28.2341H91.3187C91.2181 28.2156 91.1149 28.2241 91.0179 28.2587C90.9208 28.2934 90.8326 28.3533 90.7605 28.4335C90.6884 28.5136 90.6345 28.6117 90.6033 28.7196C90.5721 28.8275 90.5645 28.9421 90.5811 29.0539V32.2434C90.5645 32.3552 90.5721 32.4698 90.6033 32.5777C90.6345 32.6856 90.6884 32.7837 90.7605 32.8638C90.8326 32.944 90.9208 33.0039 91.0179 33.0386C91.1149 33.0732 91.2181 33.0817 91.3187 33.0633H98.1931V34.6375Z" fill="white"/>
<path d="M110 28.2338H106.209V34.6208H104.77V28.2338H100.986V26.6514H110V28.2338Z" fill="white"/>
<path d="M61.2866 47.1356H54.4122C54.1272 47.1449 53.8435 47.0889 53.5787 46.9711C53.314 46.8533 53.0739 46.6763 52.8733 46.451C52.6727 46.2257 52.5159 45.957 52.4126 45.6615C52.3094 45.366 52.262 45.0501 52.2732 44.7333V41.5439C52.2617 41.2263 52.3081 40.9093 52.4095 40.612C52.5109 40.3147 52.6652 40.0433 52.8633 39.8139C53.0665 39.5932 53.3079 39.4205 53.5729 39.3063C53.8378 39.1922 54.1209 39.139 54.4049 39.1498H61.2793V40.7322H54.4122C54.3113 40.7118 54.2075 40.7189 54.1096 40.7529C54.0117 40.7869 53.9227 40.8468 53.8502 40.9274C53.7777 41.008 53.7238 41.1069 53.6932 41.2157C53.6627 41.3245 53.6563 41.44 53.6746 41.5521V44.7415C53.6563 44.8537 53.6627 44.9691 53.6932 45.0779C53.7238 45.1867 53.7777 45.2857 53.8502 45.3663C53.9227 45.4469 54.0117 45.5068 54.1096 45.5407C54.2075 45.5747 54.3113 45.5818 54.4122 45.5614H61.2866V47.1356Z" fill="white"/>
<path d="M73.347 40.7318H69.5484V47.1188H68.0732V40.7318H64.3262V39.1494H73.347V40.7318Z" fill="white"/>
<path d="M85.4011 41.5436C85.4011 42.1785 85.1742 42.7875 84.7703 43.2365C84.3664 43.6854 83.8186 43.9377 83.2474 43.9377H77.8113V47.1353H76.3877V39.1495H83.2474C83.5307 39.1473 83.8117 39.2077 84.0739 39.3273C84.3361 39.4468 84.5743 39.6231 84.7747 39.8458C84.9751 40.0686 85.1336 40.3334 85.2412 40.6248C85.3487 40.9163 85.4031 41.2286 85.4011 41.5436ZM83.9702 41.5436C83.9694 41.3285 83.8926 41.1224 83.7563 40.9696C83.6906 40.8934 83.6116 40.8329 83.524 40.792C83.4365 40.7511 83.3423 40.7307 83.2474 40.7319H77.8113V42.3717H83.2474C83.3418 42.374 83.4356 42.3548 83.5231 42.3153C83.6107 42.2758 83.69 42.2169 83.7563 42.1421C83.8264 42.0636 83.8816 41.97 83.9183 41.8672C83.9551 41.7643 83.9727 41.6542 83.9702 41.5436Z" fill="white"/>
<path d="M97.5453 44.7339C97.5565 45.0527 97.5101 45.3709 97.4087 45.6694C97.3074 45.968 97.1532 46.2409 96.9552 46.4721C96.7497 46.6963 96.5047 46.871 96.2357 46.9853C95.9666 47.0996 95.6793 47.1509 95.3915 47.1362H90.6709C90.3865 47.1455 90.1032 47.0907 89.8383 46.9752C89.5734 46.8597 89.3322 46.6857 89.1293 46.4639C88.929 46.2356 88.7721 45.9647 88.6682 45.6674C88.5643 45.3702 88.5154 45.0526 88.5245 44.7339V41.5445C88.5216 41.2299 88.575 40.9177 88.6818 40.6263C88.7885 40.3349 88.9464 40.0701 89.1462 39.8472C89.346 39.6243 89.5837 39.4479 89.8455 39.3283C90.1073 39.2087 90.3879 39.1482 90.6709 39.1504H95.3915C95.6766 39.1413 95.9603 39.197 96.2253 39.3141C96.4903 39.4313 96.731 39.6073 96.9326 39.8314C97.1343 40.0556 97.2926 40.3231 97.398 40.6177C97.5033 40.9122 97.5535 41.2276 97.5453 41.5445V44.7339ZM96.0701 44.7339V41.5445C96.0885 41.4323 96.0821 41.3169 96.0515 41.2081C96.0209 41.0993 95.9671 41.0003 95.8946 40.9197C95.8221 40.8391 95.7331 40.7792 95.6352 40.7453C95.5373 40.7113 95.4334 40.7042 95.3325 40.7246H90.6119C90.5163 40.7212 90.421 40.7398 90.3321 40.7793C90.2433 40.8188 90.1627 40.8783 90.0956 40.9541C89.9602 41.1102 89.886 41.3195 89.8891 41.5363V44.7257C89.8725 44.8375 89.8801 44.9521 89.9113 45.06C89.9425 45.1679 89.9964 45.266 90.0685 45.3462C90.1406 45.4263 90.2288 45.4862 90.3259 45.5209C90.423 45.5556 90.5261 45.564 90.6267 45.5456H95.3473C95.449 45.5702 95.5547 45.5667 95.6549 45.5352C95.7551 45.5037 95.8469 45.4452 95.9219 45.365C95.997 45.2848 96.0532 45.1852 96.0855 45.0752C96.1177 44.9651 96.1251 44.8479 96.107 44.7339H96.0701Z" fill="white"/>
<path d="M109.69 47.1382H108.251V41.0218L102.491 47.1136H100.669V39.1524H102.093V45.2361L107.868 39.1524H109.69V47.1382ZM105.478 39.8739C105.214 40.1236 104.908 40.3131 104.578 40.4315L103.597 40.8906C103.678 40.5217 103.767 40.1445 103.848 39.7755C103.923 39.4061 104.05 39.052 104.224 38.7261C104.323 38.583 104.459 38.4768 104.614 38.4212C104.768 38.3657 104.934 38.3635 105.09 38.415C105.246 38.4665 105.384 38.5692 105.486 38.7096C105.588 38.8501 105.65 39.0216 105.662 39.2016C105.676 39.3218 105.666 39.4436 105.634 39.5594C105.602 39.6752 105.549 39.7823 105.478 39.8739Z" fill="white"/>
<path fill-rule="evenodd" clip-rule="evenodd" d="M0 0V47.9998H19.6776V11.3609L0 0Z" fill="#0BBF9F"/>
<path opacity="0.5" fill-rule="evenodd" clip-rule="evenodd" d="M0 16.501V48H29.5164V26.0914L0 16.501Z" fill="white"/>
<path opacity="0.5" fill-rule="evenodd" clip-rule="evenodd" d="M0 31.9238V48H39.7461V38.9321L0 31.9238Z" fill="white"/>
</svg>
