<svg width="22" height="22" viewBox="0 0 22 22" fill="none" xmlns="http://www.w3.org/2000/svg">
<path d="M8.36842 8.36842V4.68421C8.36842 2.64948 6.71894 1 4.68421 1V1C2.64948 1 1 2.64948 1 4.68421V4.68421C1 6.71894 2.64948 8.36842 4.68421 8.36842H8.36842ZM8.36842 8.36842H13.6316M8.36842 8.36842V13.6316M13.6316 8.36842V4.68421C13.6316 2.64948 15.2811 1 17.3158 1V1C19.3505 1 21 2.64948 21 4.68421V4.68421C21 6.71894 19.3505 8.36842 17.3158 8.36842H13.6316ZM13.6316 8.36842V13.6316M8.36842 13.6316H4.68421C2.64948 13.6316 1 15.2811 1 17.3158V17.3158C1 19.3505 2.64948 21 4.68421 21V21C6.71894 21 8.36842 19.3505 8.36842 17.3158V13.6316ZM8.36842 13.6316H13.6316M13.6316 13.6316V17.3158C13.6316 19.3505 15.2811 21 17.3158 21V21C19.3505 21 21 19.3505 21 17.3158V17.3158C21 15.2811 19.3505 13.6316 17.3158 13.6316H13.6316Z" stroke="black" stroke-width="2"/>
</svg>
