<?xml version="1.0" encoding="utf-8"?><svg viewBox="0 0 502.66 502.66" xmlns="http://www.w3.org/2000/svg" xmlns:xlink="http://www.w3.org/1999/xlink"><style>:root>svg{display:none}:root>svg:target{display:block}</style><svg viewBox="0 0 22 13" id="arrow" xmlns="http://www.w3.org/2000/svg"><path d="M1 12L11 2l10 10"/></svg><svg viewBox="0 0 8 12" id="arrow-r" xmlns="http://www.w3.org/2000/svg"><path d="M1.5 1l5 5-5 5"/></svg><svg viewBox="0 0 24 24" id="close" xmlns="http://www.w3.org/2000/svg"><path d="M23 1L1 23M1 1l22 22"/></svg><svg viewBox="0 0 64 64" id="cookie" xmlns="http://www.w3.org/2000/svg"><path fill-rule="evenodd" clip-rule="evenodd" d="M33.944.058A32.497 32.497 0 0032 0C14.327 0 0 14.327 0 32c0 17.673 14.327 32 32 32 17.673 0 32-14.327 32-32a32.403 32.403 0 00-.412-5.147c-.091-.567-.745-.834-1.258-.577a8.735 8.735 0 01-3.93.924 8.767 8.767 0 01-5.791-2.174.899.899 0 00-.934-.154A9.572 9.572 0 0148 25.6a9.6 9.6 0 01-9.6-9.6c0-1.653.418-3.208 1.153-4.565a.89.89 0 00-.101-.998A11.156 11.156 0 0136.828 2.4c.027-.383.073-.76.138-1.132.08-.463-.217-.921-.683-.984a32.146 32.146 0 00-2.339-.226zM33.6 3.244A29.315 29.315 0 0032 3.2C16.094 3.2 3.2 16.094 3.2 32S16.094 60.8 32 60.8 60.8 47.906 60.8 32c0-.615-.02-1.225-.057-1.83-.758.151-1.542.23-2.343.23-2.524 0-4.87-.782-6.802-2.113A12.802 12.802 0 0148 28.8c-7.07 0-12.8-5.73-12.8-12.8 0-1.657.316-3.244.892-4.701A14.343 14.343 0 0133.6 3.244z"/><circle cx="21.6" cy="23.2" r="4"/><circle cx="22.4" cy="46.4" r="3.2"/><circle cx="43.2" cy="40" r="3.2"/><circle cx="32" cy="32" r="1.6"/><circle cx="27.2" cy="11.2" r="1.6"/><circle cx="35.2" cy="51.2" r="1.6"/><circle cx="54.4" cy="41.6" r="1.6"/><circle cx="11.2" cy="32" r="1.6"/></svg><svg viewBox="0 0 502.664 502.664" id="icon" xmlns="http://www.w3.org/2000/svg"><path d="M153.821 358.226L0 274.337v-46.463l153.821-83.414v54.574L46.636 250.523l107.185 53.431v54.272zm26.273 29.358L282.103 115.08h32.227L212.084 387.584h-31.99zm168.749-29.358v-54.272l107.164-52.999-107.164-52.59v-53.927l153.821 83.522v46.183l-153.821 84.083z"/></svg><svg viewBox="0 0 24 24" id="phone" xmlns="http://www.w3.org/2000/svg"><path d="M22.284 18.244l-2.648 4.414a.509.509 0 01-.618.22c-1.443-.547-6.54-2.686-10.898-7.043C3.762 11.477 1.624 6.38 1.076 4.937a.509.509 0 01.22-.618L5.71 1.671a.531.531 0 01.65.08l4.044 4.045a.531.531 0 01.089.633l-2.178 3.92a.531.531 0 00.088.634l4.568 4.569a.531.531 0 00.634.088l3.92-2.178a.531.531 0 01.634.089l4.045 4.045c.172.172.205.44.08.648z"/></svg><svg viewBox="0 0 16 16" id="view" xmlns="http://www.w3.org/2000/svg"><path fill-rule="evenodd" clip-rule="evenodd" d="M14 11h2a8 8 0 10-16 0h2a6 6 0 1112 0z" fill-opacity=".56"/><circle cx="8" cy="11" r="3" fill-opacity=".56"/></svg></svg>