<svg width="20" height="17" viewBox="0 0 20 17" fill="none" xmlns="http://www.w3.org/2000/svg">
<path d="M19.6004 2.6466C18.8864 2.9598 18.1256 3.1674 17.3324 3.2682C18.1484 2.781 18.7712 2.0154 19.064 1.0926C18.3032 1.5462 17.4632 1.8666 16.568 2.0454C15.8456 1.2762 14.816 0.799805 13.6928 0.799805C11.5136 0.799805 9.75919 2.5686 9.75919 4.737C9.75919 5.049 9.78559 5.349 9.85039 5.6346C6.57799 5.475 3.68239 3.9066 1.73719 1.5174C1.39759 2.1066 1.19839 2.781 1.19839 3.507C1.19839 4.8702 1.90039 6.0786 2.94679 6.7782C2.31439 6.7662 1.69399 6.5826 1.16839 6.2934C1.16839 6.3054 1.16839 6.321 1.16839 6.3366C1.16839 8.2494 2.53279 9.8382 4.32199 10.2042C4.00159 10.2918 3.65239 10.3338 3.28999 10.3338C3.03799 10.3338 2.78359 10.3194 2.54479 10.2666C3.05479 11.8254 4.50199 12.9714 6.22279 13.0086C4.88359 14.0562 3.18319 14.6874 1.34239 14.6874C1.01959 14.6874 0.709991 14.673 0.400391 14.6334C2.14399 15.7578 4.21039 16.3998 6.43879 16.3998C13.682 16.3998 17.642 10.3998 17.642 5.199C17.642 5.025 17.636 4.857 17.6276 4.6902C18.4088 4.1358 19.0652 3.4434 19.6004 2.6466Z" fill="#03A9F4"/>
</svg>
