<svg width="64" height="64" viewBox="0 0 64 64" fill="none" xmlns="http://www.w3.org/2000/svg">
<path d="M40 16V6H24V16M40 16H44V32M40 16H24M44 32H48V64M44 32H20M24 16H20V32M20 32H16V64" stroke="#011713" stroke-width="3"/>
<path d="M29 9V13M35 9V13" stroke="#011713" stroke-width="3"/>
<path d="M28 64V37H23V64" stroke="#011713" stroke-width="3"/>
<path d="M41 64V37H36V64" stroke="#011713" stroke-width="3"/>
<path d="M25 19V29M32 19V29M39 19V29" stroke="#011713" stroke-width="3"/>
<path fill-rule="evenodd" clip-rule="evenodd" d="M49 35H50.5H59.5H59.6413L59.7803 34.9846C61.0281 34.8467 62 33.7855 62 32.5C62 31.1193 60.8807 30 59.5 30C59.4021 30 59.3062 30.0055 59.2126 30.0162L57.1058 30.2552L56.9901 28.138C56.8033 24.7174 53.9683 22 50.5 22C48.1871 22 46.153 23.2082 45 25.0336V22.019C46.4824 20.7597 48.4025 20 50.5 20C54.6959 20 58.1818 23.0403 58.8748 27.0381C58.931 27.3625 58.9688 27.6931 58.9872 28.0289C59.1555 28.0098 59.3266 28 59.5 28L59.5158 28C61.9938 28.0086 64 30.02 64 32.5C64 34.8163 62.25 36.7238 60 36.9725V37H59.5H58H50.5H49V35Z" fill="#011713"/>
<path fill-rule="evenodd" clip-rule="evenodd" d="M23 14.1123V10.0225C21.4408 8.17411 19.1075 7 16.5 7C12.3041 7 8.81821 10.0403 8.12523 14.0381C8.06902 14.3625 8.03118 14.6931 8.01283 15.0289C7.84453 15.0098 7.67341 15 7.5 15L7.48417 15C5.00617 15.0086 3 17.02 3 19.5C3 21.8163 4.75002 23.7238 7 23.9725V24H7.5H9H16.5H19V22H16.5H7.5H7.35865L7.21975 21.9846C5.97189 21.8467 5 20.7855 5 19.5C5 18.1193 6.11929 17 7.5 17C7.5979 17 7.69375 17.0055 7.78739 17.0162L9.89421 17.2552L10.0099 15.138C10.1967 11.7174 13.0317 9 16.5 9C19.1458 9 21.4267 10.581 22.4412 12.8581L23 14.1123Z" fill="#011713"/>
</svg>
