<svg width="66" height="65" viewBox="0 0 66 65" fill="none" xmlns="http://www.w3.org/2000/svg">
<path d="M17 63V4H49V46V63M17 63L2 63V46H17H33M17 63L33 63M49 63H64V46H33M49 63H33M33 46V63" stroke="#011713" stroke-width="3"/>
<path d="M25 55V63" stroke="black" stroke-width="3"/>
<path d="M56.5 55V63" stroke="black" stroke-width="3"/>
<path d="M9.5 55V63" stroke="black" stroke-width="3"/>
<path d="M41 55V63" stroke="black" stroke-width="3"/>
<rect x="25" y="12" width="4" height="4" stroke="#011713" stroke-width="2"/>
<rect x="25" y="23" width="4" height="4" stroke="#011713" stroke-width="2"/>
<rect x="25" y="34" width="4" height="4" stroke="#011713" stroke-width="2"/>
<rect x="36" y="12" width="4" height="4" stroke="#011713" stroke-width="2"/>
<rect x="36" y="23" width="4" height="4" stroke="#011713" stroke-width="2"/>
<rect x="36" y="34" width="4" height="4" stroke="#011713" stroke-width="2"/>
</svg>
