<svg width="66" height="64" viewBox="0 0 66 64" fill="none" xmlns="http://www.w3.org/2000/svg">
<path d="M2 39V58H12V39C12 36.2386 9.76142 34 7 34C4.23858 34 2 36.2386 2 39Z" stroke="#011713" stroke-width="3"/>
<path d="M54 52C56.2091 52 58 50.2091 58 48C58 45.7909 56.2091 44 54 44C51.7909 44 50 45.7909 50 48C50 50.2091 51.7909 52 54 52Z" stroke="#011713" stroke-width="2"/>
<path d="M5.41016 11.7188L50.8751 37.8701C52.79 38.9716 55.2353 38.3121 56.3368 36.3972C57.4383 34.4822 56.7788 32.0369 54.8639 30.9355L9.39896 4.7841L5.41016 11.7188Z" stroke="#011713" stroke-width="3"/>
<path fill-rule="evenodd" clip-rule="evenodd" d="M42.6497 33.1395C42.5512 33.7451 42.5 34.3666 42.5 35V58V59.5H44H64H65.5V58V35C65.5 28.6487 60.3513 23.5 54 23.5C51.1863 23.5 48.6086 24.5105 46.61 26.1884L49.4476 27.8206C50.7637 26.9843 52.3253 26.5 54 26.5C58.6944 26.5 62.5 30.3056 62.5 35V56.5H45.5V35C45.5 34.9266 45.5009 34.8535 45.5028 34.7805L42.6497 33.1395Z" fill="#011713"/>
</svg>
