<svg width="64" height="66" viewBox="0 0 64 66" fill="none" xmlns="http://www.w3.org/2000/svg">
<path d="M12 64V2.5L52 14V19M12 64H52M12 64H5V10H12M52 64V19M52 64H59V19H52" stroke="#011713" stroke-width="3"/>
<path d="M27 64V52H37V64" stroke="#011713" stroke-width="3"/>
<rect x="19" y="24" width="4" height="4" stroke="#011713" stroke-width="2"/>
<rect x="30" y="24" width="4" height="4" stroke="#011713" stroke-width="2"/>
<rect x="41" y="24" width="4" height="4" stroke="#011713" stroke-width="2"/>
<rect x="19" y="33" width="4" height="4" stroke="#011713" stroke-width="2"/>
<rect x="19" y="42" width="4" height="4" stroke="#011713" stroke-width="2"/>
<rect x="30" y="33" width="4" height="4" stroke="#011713" stroke-width="2"/>
<rect x="30" y="42" width="4" height="4" stroke="#011713" stroke-width="2"/>
<rect x="41" y="33" width="4" height="4" stroke="#011713" stroke-width="2"/>
<rect x="41" y="42" width="4" height="4" stroke="#011713" stroke-width="2"/>
<rect x="19" y="15" width="4" height="4" stroke="#011713" stroke-width="2"/>
</svg>
