<svg width="24" height="24" viewBox="0 0 24 24" fill="none" xmlns="http://www.w3.org/2000/svg">
<path d="M22.2838 18.2445L19.6356 22.6581C19.5075 22.8717 19.2506 22.9672 19.0178 22.8789C17.5747 22.3313 12.4775 20.1925 8.11991 15.8349C3.76231 11.4773 1.62356 6.3801 1.07597 4.93698C0.987634 4.70418 1.08317 4.44732 1.29669 4.31921L5.71034 1.67102C5.91937 1.5456 6.18694 1.57854 6.35931 1.75091L10.4039 5.79554C10.5717 5.96326 10.6079 6.22184 10.4927 6.42918L8.31452 10.3499C8.19933 10.5572 8.23555 10.8158 8.40327 10.9835L12.9713 15.5516C13.139 15.7193 13.3976 15.7555 13.605 15.6403L17.5256 13.4622C17.733 13.347 17.9916 13.3832 18.1593 13.5509L22.2039 17.5955C22.3763 17.7679 22.4092 18.0355 22.2838 18.2445Z" stroke="#011713" stroke-width="2"/>
</svg>
